<mxfile host="app.diagrams.net" modified="2023-06-13T17:39:31.496Z" agent="Mozilla/5.0 (Windows NT 10.0; Win64; x64) AppleWebKit/537.36 (KHTML, like Gecko) Chrome/113.0.0.0 Safari/537.36 OPR/99.0.0.0" etag="Aa2r9yQj0DPMAUSeYFga" version="21.3.8" type="github">
  <diagram name="Page-1" id="2YBvvXClWsGukQMizWep">
    <mxGraphModel dx="1393" dy="758" grid="1" gridSize="10" guides="1" tooltips="1" connect="1" arrows="1" fold="1" page="1" pageScale="1" pageWidth="850" pageHeight="1100" math="0" shadow="0">
      <root>
        <mxCell id="0" />
        <mxCell id="1" parent="0" />
        <mxCell id="h_A4irbNwbOQOBewHIM6-2" value="&lt;font style=&quot;font-size: 34px;&quot;&gt;IDLE&lt;/font&gt;" style="rounded=1;whiteSpace=wrap;html=1;" vertex="1" parent="1">
          <mxGeometry x="260" y="40" width="300" height="80" as="geometry" />
        </mxCell>
        <mxCell id="h_A4irbNwbOQOBewHIM6-3" value="&lt;font style=&quot;font-size: 30px;&quot;&gt;WAIT_ON_SYNC&lt;/font&gt;" style="rounded=1;whiteSpace=wrap;html=1;" vertex="1" parent="1">
          <mxGeometry x="260" y="200" width="300" height="80" as="geometry" />
        </mxCell>
        <mxCell id="h_A4irbNwbOQOBewHIM6-4" value="&lt;font style=&quot;font-size: 30px;&quot;&gt;WAIT_ON_DV&lt;/font&gt;" style="rounded=1;whiteSpace=wrap;html=1;" vertex="1" parent="1">
          <mxGeometry x="260" y="360" width="300" height="80" as="geometry" />
        </mxCell>
        <mxCell id="h_A4irbNwbOQOBewHIM6-5" value="&lt;font style=&quot;font-size: 34px;&quot;&gt;HIST_COUNTING&lt;/font&gt;" style="rounded=1;whiteSpace=wrap;html=1;" vertex="1" parent="1">
          <mxGeometry x="260" y="520" width="300" height="80" as="geometry" />
        </mxCell>
        <mxCell id="h_A4irbNwbOQOBewHIM6-6" value="&lt;font style=&quot;font-size: 30px;&quot;&gt;HIST_SENDING&lt;/font&gt;" style="rounded=1;whiteSpace=wrap;html=1;" vertex="1" parent="1">
          <mxGeometry x="260" y="680" width="300" height="80" as="geometry" />
        </mxCell>
        <mxCell id="h_A4irbNwbOQOBewHIM6-7" value="axi_read_strobe = 1" style="endArrow=classic;html=1;rounded=0;exitX=0.5;exitY=1;exitDx=0;exitDy=0;entryX=0.5;entryY=0;entryDx=0;entryDy=0;" edge="1" parent="1" source="h_A4irbNwbOQOBewHIM6-2" target="h_A4irbNwbOQOBewHIM6-3">
          <mxGeometry width="50" height="50" relative="1" as="geometry">
            <mxPoint x="400" y="420" as="sourcePoint" />
            <mxPoint x="450" y="370" as="targetPoint" />
          </mxGeometry>
        </mxCell>
        <mxCell id="h_A4irbNwbOQOBewHIM6-8" value="vs_in = 1" style="endArrow=classic;html=1;rounded=0;exitX=0.5;exitY=1;exitDx=0;exitDy=0;entryX=0.5;entryY=0;entryDx=0;entryDy=0;" edge="1" parent="1">
          <mxGeometry width="50" height="50" relative="1" as="geometry">
            <mxPoint x="409.5" y="280" as="sourcePoint" />
            <mxPoint x="409.5" y="360" as="targetPoint" />
          </mxGeometry>
        </mxCell>
        <mxCell id="h_A4irbNwbOQOBewHIM6-9" value="dv_i = 1" style="endArrow=classic;html=1;rounded=0;exitX=0.5;exitY=1;exitDx=0;exitDy=0;entryX=0.5;entryY=0;entryDx=0;entryDy=0;" edge="1" parent="1">
          <mxGeometry width="50" height="50" relative="1" as="geometry">
            <mxPoint x="409.5" y="440" as="sourcePoint" />
            <mxPoint x="409.5" y="520" as="targetPoint" />
          </mxGeometry>
        </mxCell>
        <mxCell id="h_A4irbNwbOQOBewHIM6-10" value="vs_y = 1" style="endArrow=classic;html=1;rounded=0;exitX=0.5;exitY=1;exitDx=0;exitDy=0;entryX=0.5;entryY=0;entryDx=0;entryDy=0;" edge="1" parent="1">
          <mxGeometry width="50" height="50" relative="1" as="geometry">
            <mxPoint x="409.5" y="600" as="sourcePoint" />
            <mxPoint x="409.5" y="680" as="targetPoint" />
          </mxGeometry>
        </mxCell>
        <mxCell id="h_A4irbNwbOQOBewHIM6-11" value="hist_addr szaturÃ¡lt" style="endArrow=classic;html=1;rounded=0;exitX=0;exitY=0.5;exitDx=0;exitDy=0;entryX=0;entryY=0.5;entryDx=0;entryDy=0;" edge="1" parent="1" source="h_A4irbNwbOQOBewHIM6-6" target="h_A4irbNwbOQOBewHIM6-2">
          <mxGeometry width="50" height="50" relative="1" as="geometry">
            <mxPoint x="400" y="420" as="sourcePoint" />
            <mxPoint x="450" y="370" as="targetPoint" />
            <Array as="points">
              <mxPoint x="120" y="720" />
              <mxPoint x="120" y="400" />
              <mxPoint x="120" y="80" />
            </Array>
          </mxGeometry>
        </mxCell>
      </root>
    </mxGraphModel>
  </diagram>
</mxfile>
